<?xml version="1.0" encoding="UTF-8" standalone="no"?>
<!DOCTYPE svg PUBLIC "-//W3C//DTD SVG 1.1//EN"
 "http://www.w3.org/Graphics/SVG/1.1/DTD/svg11.dtd">
<!-- Generated by graphviz version 2.40.1 (20161225.0304)
 -->
<!-- Title: dependencies Pages: 1 -->
<svg width="2715pt" height="290pt"
 viewBox="0.00 0.00 2715.00 290.00" xmlns="http://www.w3.org/2000/svg" xmlns:xlink="http://www.w3.org/1999/xlink">
<g id="graph0" class="graph" transform="scale(1 1) rotate(0) translate(4 286)">
<title>dependencies</title>
<polygon fill="#ffffff" stroke="transparent" points="-4,4 -4,-286 2711,-286 2711,4 -4,4"/>
<text text-anchor="start" x="1332.5091" y="-42.4" font-family="sans-serif" font-weight="bold" font-size="14.00" fill="#000000">Legend</text>
<polygon fill="#ffffb3" stroke="transparent" points="1119.5,-10 1119.5,-30 1139.5,-30 1139.5,-10 1119.5,-10"/>
<text text-anchor="start" x="1143.129" y="-15.4" font-family="sans-serif" font-size="14.00" fill="#000000"> &#160;Declarations</text>
<polygon fill="#8dd3c7" stroke="transparent" points="1232.5,-10 1232.5,-30 1252.5,-30 1252.5,-10 1232.5,-10"/>
<text text-anchor="start" x="1256.2251" y="-15.4" font-family="sans-serif" font-size="14.00" fill="#000000"> &#160;Module</text>
<polygon fill="#80b1d3" stroke="transparent" points="1318.5,-10 1318.5,-30 1338.5,-30 1338.5,-10 1318.5,-10"/>
<text text-anchor="start" x="1342.2812" y="-15.4" font-family="sans-serif" font-size="14.00" fill="#000000"> &#160;Bootstrap</text>
<polygon fill="#fdb462" stroke="transparent" points="1415.5,-10 1415.5,-30 1435.5,-30 1435.5,-10 1415.5,-10"/>
<text text-anchor="start" x="1439.1732" y="-15.4" font-family="sans-serif" font-size="14.00" fill="#000000"> &#160;Providers</text>
<polygon fill="#fb8072" stroke="transparent" points="1511.5,-10 1511.5,-30 1531.5,-30 1531.5,-10 1511.5,-10"/>
<text text-anchor="start" x="1535.2258" y="-15.4" font-family="sans-serif" font-size="14.00" fill="#000000"> &#160;Exports</text>
<g id="clust1" class="cluster">
<title>cluster_AppModule</title>
<polygon fill="none" stroke="#000000" stroke-dasharray="1,5" points="8,-70 8,-274 1384,-274 1384,-70 8,-70"/>
</g>
<g id="clust2" class="cluster">
<title>cluster_AppModule_declarations</title>
<polygon fill="none" stroke="#000000" points="814,-78 814,-130 936,-130 936,-78 814,-78"/>
</g>
<g id="clust4" class="cluster">
<title>cluster_AppModule_imports</title>
<polygon fill="none" stroke="#000000" points="944,-78 944,-130 1376,-130 1376,-78 944,-78"/>
</g>
<g id="clust6" class="cluster">
<title>cluster_AppModule_bootstrap</title>
<polygon fill="none" stroke="#000000" points="813,-214 813,-266 937,-266 937,-214 813,-214"/>
</g>
<g id="clust7" class="cluster">
<title>cluster_AppModule_providers</title>
<polygon fill="none" stroke="#000000" points="16,-78 16,-130 806,-130 806,-78 16,-78"/>
</g>
<g id="clust8" class="cluster">
<title>cluster_AppRoutingModule</title>
<polygon fill="none" stroke="#000000" stroke-dasharray="1,5" points="1392,-138 1392,-206 1728,-206 1728,-138 1392,-138"/>
</g>
<g id="clust10" class="cluster">
<title>cluster_AppRoutingModule_imports</title>
<polygon fill="none" stroke="#000000" points="1526,-146 1526,-198 1720,-198 1720,-146 1526,-146"/>
</g>
<g id="clust11" class="cluster">
<title>cluster_AppRoutingModule_exports</title>
<polygon fill="none" stroke="#000000" points="1400,-146 1400,-198 1518,-198 1518,-146 1400,-146"/>
</g>
<g id="clust14" class="cluster">
<title>cluster_ConnexionPageModule</title>
<polygon fill="none" stroke="#000000" stroke-dasharray="1,5" points="1736,-70 1736,-198 2427,-198 2427,-70 1736,-70"/>
</g>
<g id="clust15" class="cluster">
<title>cluster_ConnexionPageModule_declarations</title>
<polygon fill="none" stroke="#000000" points="1744,-78 1744,-130 1864,-130 1864,-78 1744,-78"/>
</g>
<g id="clust17" class="cluster">
<title>cluster_ConnexionPageModule_imports</title>
<polygon fill="none" stroke="#000000" points="1872,-78 1872,-130 2419,-130 2419,-78 1872,-78"/>
</g>
<g id="clust21" class="cluster">
<title>cluster_HikingsModule</title>
<polygon fill="none" stroke="#000000" stroke-dasharray="1,5" points="2435,-70 2435,-198 2555,-198 2555,-70 2435,-70"/>
</g>
<g id="clust22" class="cluster">
<title>cluster_HikingsModule_declarations</title>
<polygon fill="none" stroke="#000000" points="2455,-78 2455,-130 2535,-130 2535,-78 2455,-78"/>
</g>
<g id="clust28" class="cluster">
<title>cluster_HomePageModule</title>
<polygon fill="none" stroke="#000000" stroke-dasharray="1,5" points="2563,-70 2563,-198 2699,-198 2699,-70 2563,-70"/>
</g>
<g id="clust29" class="cluster">
<title>cluster_HomePageModule_declarations</title>
<polygon fill="none" stroke="#000000" points="2584,-78 2584,-130 2678,-130 2678,-78 2584,-78"/>
</g>
<!-- AppComponent -->
<g id="node1" class="node">
<title>AppComponent</title>
<polygon fill="#ffffb3" stroke="#000000" points="927.9399,-122 822.0601,-122 822.0601,-86 927.9399,-86 927.9399,-122"/>
<text text-anchor="middle" x="875" y="-99.8" font-family="Times,serif" font-size="14.00" fill="#000000">AppComponent</text>
</g>
<!-- AppModule -->
<g id="node2" class="node">
<title>AppModule</title>
<polygon fill="#8dd3c7" stroke="#000000" points="916.6571,-190 913.6571,-194 892.6571,-194 889.6571,-190 833.3429,-190 833.3429,-154 916.6571,-154 916.6571,-190"/>
<text text-anchor="middle" x="875" y="-167.8" font-family="Times,serif" font-size="14.00" fill="#000000">AppModule</text>
</g>
<!-- AppComponent&#45;&gt;AppModule -->
<g id="edge1" class="edge">
<title>AppComponent&#45;&gt;AppModule</title>
<path fill="none" stroke="#000000" d="M875,-122.2228C875,-122.2228 875,-143.7269 875,-143.7269"/>
<polygon fill="#000000" stroke="#000000" points="871.5001,-143.7269 875,-153.7269 878.5001,-143.727 871.5001,-143.7269"/>
</g>
<!-- AppComponent  -->
<g id="node6" class="node">
<title>AppComponent </title>
<polygon fill="#80b1d3" stroke="#000000" points="929.439,-258 820.561,-258 820.561,-222 929.439,-222 929.439,-258"/>
<text text-anchor="middle" x="875" y="-235.8" font-family="Times,serif" font-size="14.00" fill="#000000">AppComponent </text>
</g>
<!-- AppModule&#45;&gt;AppComponent  -->
<g id="edge5" class="edge">
<title>AppModule&#45;&gt;AppComponent </title>
<path fill="none" stroke="#000000" stroke-dasharray="1,5" d="M875,-190.2228C875,-190.2228 875,-211.7269 875,-211.7269"/>
<polygon fill="#000000" stroke="#000000" points="871.5001,-211.7269 875,-221.7269 878.5001,-211.727 871.5001,-211.7269"/>
</g>
<!-- BrowserModule -->
<g id="node3" class="node">
<title>BrowserModule</title>
<polygon fill="#8dd3c7" stroke="#000000" points="1058.4734,-122 1055.4734,-126 1034.4734,-126 1031.4734,-122 951.5266,-122 951.5266,-86 1058.4734,-86 1058.4734,-122"/>
<text text-anchor="middle" x="1005" y="-99.8" font-family="Times,serif" font-size="14.00" fill="#000000">BrowserModule</text>
</g>
<!-- BrowserModule&#45;&gt;AppModule -->
<g id="edge2" class="edge">
<title>BrowserModule&#45;&gt;AppModule</title>
<path fill="none" stroke="#000000" d="M1005,-122.0225C1005,-139.3734 1005,-163 1005,-163 1005,-163 926.8484,-163 926.8484,-163"/>
<polygon fill="#000000" stroke="#000000" points="926.8484,-159.5001 916.8484,-163 926.8484,-166.5001 926.8484,-159.5001"/>
</g>
<!-- IonicModule.forRoot() -->
<g id="node4" class="node">
<title>IonicModule.forRoot()</title>
<polygon fill="#8dd3c7" stroke="#000000" points="1221.1855,-122 1218.1855,-126 1197.1855,-126 1194.1855,-122 1076.8145,-122 1076.8145,-86 1221.1855,-86 1221.1855,-122"/>
<text text-anchor="middle" x="1149" y="-99.8" font-family="Times,serif" font-size="14.00" fill="#000000">IonicModule.forRoot()</text>
</g>
<!-- IonicModule.forRoot()&#45;&gt;AppModule -->
<g id="edge3" class="edge">
<title>IonicModule.forRoot()&#45;&gt;AppModule</title>
<path fill="none" stroke="#000000" d="M1149,-122.2228C1149,-142.3652 1149,-172 1149,-172 1149,-172 926.913,-172 926.913,-172"/>
<polygon fill="#000000" stroke="#000000" points="926.913,-168.5001 916.913,-172 926.9129,-175.5001 926.913,-168.5001"/>
</g>
<!-- AppRoutingModule -->
<g id="node5" class="node">
<title>AppRoutingModule</title>
<polygon fill="#8dd3c7" stroke="#000000" points="1368.2744,-122 1365.2744,-126 1344.2744,-126 1341.2744,-122 1239.7256,-122 1239.7256,-86 1368.2744,-86 1368.2744,-122"/>
<text text-anchor="middle" x="1304" y="-99.8" font-family="Times,serif" font-size="14.00" fill="#000000">AppRoutingModule</text>
</g>
<!-- AppRoutingModule&#45;&gt;AppModule -->
<g id="edge4" class="edge">
<title>AppRoutingModule&#45;&gt;AppModule</title>
<path fill="none" stroke="#000000" d="M1304,-122.2479C1304,-145.0179 1304,-181 1304,-181 1304,-181 926.9154,-181 926.9154,-181"/>
<polygon fill="#000000" stroke="#000000" points="926.9155,-177.5001 916.9154,-181 926.9154,-184.5001 926.9155,-177.5001"/>
</g>
<!-- RouterModule  -->
<g id="node11" class="node">
<title>RouterModule </title>
<polygon fill="#fb8072" stroke="#000000" points="1509.6523,-190 1408.3477,-190 1408.3477,-154 1509.6523,-154 1509.6523,-190"/>
<text text-anchor="middle" x="1459" y="-167.8" font-family="Times,serif" font-size="14.00" fill="#000000">RouterModule </text>
</g>
<!-- AppRoutingModule&#45;&gt;RouterModule  -->
<g id="edge10" class="edge">
<title>AppRoutingModule&#45;&gt;RouterModule </title>
<path fill="none" stroke="#000000" stroke-dasharray="5,2" d="M1368.3874,-110C1410.9734,-110 1459,-110 1459,-110 1459,-110 1459,-143.7333 1459,-143.7333"/>
<polygon fill="#000000" stroke="#000000" points="1455.5001,-143.7333 1459,-153.7333 1462.5001,-143.7333 1455.5001,-143.7333"/>
</g>
<!-- StatusBar -->
<g id="node7" class="node">
<title>StatusBar</title>
<ellipse fill="#fdb462" stroke="#000000" cx="217" cy="-104" rx="48.6694" ry="18"/>
<text text-anchor="middle" x="217" y="-99.8" font-family="Times,serif" font-size="14.00" fill="#000000">StatusBar</text>
</g>
<!-- StatusBar&#45;&gt;AppModule -->
<g id="edge6" class="edge">
<title>StatusBar&#45;&gt;AppModule</title>
<path fill="none" stroke="#000000" d="M217,-122.2228C217,-142.3652 217,-172 217,-172 217,-172 823.34,-172 823.34,-172"/>
<polygon fill="#000000" stroke="#000000" points="823.34,-175.5001 833.34,-172 823.3399,-168.5001 823.34,-175.5001"/>
</g>
<!-- SplashScreen -->
<g id="node8" class="node">
<title>SplashScreen</title>
<ellipse fill="#fdb462" stroke="#000000" cx="87" cy="-104" rx="63.1189" ry="18"/>
<text text-anchor="middle" x="87" y="-99.8" font-family="Times,serif" font-size="14.00" fill="#000000">SplashScreen</text>
</g>
<!-- SplashScreen&#45;&gt;AppModule -->
<g id="edge7" class="edge">
<title>SplashScreen&#45;&gt;AppModule</title>
<path fill="none" stroke="#000000" d="M87,-122.2479C87,-145.0179 87,-181 87,-181 87,-181 823.1901,-181 823.1901,-181"/>
<polygon fill="#000000" stroke="#000000" points="823.1901,-184.5001 833.1901,-181 823.19,-177.5001 823.1901,-184.5001"/>
</g>
<!-- { provide: RouteReuseStrategy, useClass: IonicRouteStrategy } -->
<g id="node9" class="node">
<title>{ provide: RouteReuseStrategy, useClass: IonicRouteStrategy }</title>
<ellipse fill="#fdb462" stroke="#000000" cx="541" cy="-104" rx="257.2723" ry="18"/>
<text text-anchor="middle" x="541" y="-99.8" font-family="Times,serif" font-size="14.00" fill="#000000">{ provide: RouteReuseStrategy, useClass: IonicRouteStrategy }</text>
</g>
<!-- { provide: RouteReuseStrategy, useClass: IonicRouteStrategy }&#45;&gt;AppModule -->
<g id="edge8" class="edge">
<title>{ provide: RouteReuseStrategy, useClass: IonicRouteStrategy }&#45;&gt;AppModule</title>
<path fill="none" stroke="#000000" d="M541,-122.0225C541,-139.3734 541,-163 541,-163 541,-163 823.0369,-163 823.0369,-163"/>
<polygon fill="#000000" stroke="#000000" points="823.0369,-166.5001 833.0369,-163 823.0368,-159.5001 823.0369,-166.5001"/>
</g>
<!-- RouterModule.forRoot(args) -->
<g id="node10" class="node">
<title>RouterModule.forRoot(args)</title>
<polygon fill="#8dd3c7" stroke="#000000" points="1711.8419,-190 1708.8419,-194 1687.8419,-194 1684.8419,-190 1534.1581,-190 1534.1581,-154 1711.8419,-154 1711.8419,-190"/>
<text text-anchor="middle" x="1623" y="-167.8" font-family="Times,serif" font-size="14.00" fill="#000000">RouterModule.forRoot(args)</text>
</g>
<!-- RouterModule.forRoot(args)&#45;&gt;AppRoutingModule -->
<g id="edge9" class="edge">
<title>RouterModule.forRoot(args)&#45;&gt;AppRoutingModule</title>
<path fill="none" stroke="#000000" d="M1623,-153.7079C1623,-131.7943 1623,-98 1623,-98 1623,-98 1378.5544,-98 1378.5544,-98"/>
<polygon fill="#000000" stroke="#000000" points="1378.5544,-94.5001 1368.5544,-98 1378.5544,-101.5001 1378.5544,-94.5001"/>
</g>
<!-- ConnexionPage -->
<g id="node12" class="node">
<title>ConnexionPage</title>
<polygon fill="#ffffb3" stroke="#000000" points="1856.1542,-122 1751.8458,-122 1751.8458,-86 1856.1542,-86 1856.1542,-122"/>
<text text-anchor="middle" x="1804" y="-99.8" font-family="Times,serif" font-size="14.00" fill="#000000">ConnexionPage</text>
</g>
<!-- ConnexionPageModule -->
<g id="node13" class="node">
<title>ConnexionPageModule</title>
<polygon fill="#8dd3c7" stroke="#000000" points="2198.2035,-190 2195.2035,-194 2174.2035,-194 2171.2035,-190 2049.7965,-190 2049.7965,-154 2198.2035,-154 2198.2035,-190"/>
<text text-anchor="middle" x="2124" y="-167.8" font-family="Times,serif" font-size="14.00" fill="#000000">ConnexionPageModule</text>
</g>
<!-- ConnexionPage&#45;&gt;ConnexionPageModule -->
<g id="edge11" class="edge">
<title>ConnexionPage&#45;&gt;ConnexionPageModule</title>
<path fill="none" stroke="#000000" d="M1804,-122.2228C1804,-142.3652 1804,-172 1804,-172 1804,-172 2039.7813,-172 2039.7813,-172"/>
<polygon fill="#000000" stroke="#000000" points="2039.7813,-175.5001 2049.7813,-172 2039.7812,-168.5001 2039.7813,-175.5001"/>
</g>
<!-- CommonModule -->
<g id="node14" class="node">
<title>CommonModule</title>
<polygon fill="#8dd3c7" stroke="#000000" points="2410.6681,-122 2407.6681,-126 2386.6681,-126 2383.6681,-122 2299.3319,-122 2299.3319,-86 2410.6681,-86 2410.6681,-122"/>
<text text-anchor="middle" x="2355" y="-99.8" font-family="Times,serif" font-size="14.00" fill="#000000">CommonModule</text>
</g>
<!-- CommonModule&#45;&gt;ConnexionPageModule -->
<g id="edge12" class="edge">
<title>CommonModule&#45;&gt;ConnexionPageModule</title>
<path fill="none" stroke="#000000" d="M2373.6113,-122.2667C2373.6113,-140.5552 2373.6113,-166 2373.6113,-166 2373.6113,-166 2208.2158,-166 2208.2158,-166"/>
<polygon fill="#000000" stroke="#000000" points="2208.2158,-162.5001 2198.2158,-166 2208.2158,-169.5001 2208.2158,-162.5001"/>
</g>
<!-- HikingsModule -->
<g id="node19" class="node">
<title>HikingsModule</title>
<polygon fill="#8dd3c7" stroke="#000000" points="2546.8823,-190 2543.8823,-194 2522.8823,-194 2519.8823,-190 2443.1177,-190 2443.1177,-154 2546.8823,-154 2546.8823,-190"/>
<text text-anchor="middle" x="2495" y="-167.8" font-family="Times,serif" font-size="14.00" fill="#000000">HikingsModule</text>
</g>
<!-- CommonModule&#45;&gt;HikingsModule -->
<g id="edge17" class="edge">
<title>CommonModule&#45;&gt;HikingsModule</title>
<path fill="none" stroke="#000000" d="M2410.8272,-104C2434.9016,-104 2457.6434,-104 2457.6434,-104 2457.6434,-104 2457.6434,-143.7772 2457.6434,-143.7772"/>
<polygon fill="#000000" stroke="#000000" points="2454.1435,-143.7772 2457.6434,-153.7772 2461.1435,-143.7773 2454.1435,-143.7772"/>
</g>
<!-- HomePageModule -->
<g id="node21" class="node">
<title>HomePageModule</title>
<polygon fill="#8dd3c7" stroke="#000000" points="2691.4734,-190 2688.4734,-194 2667.4734,-194 2664.4734,-190 2570.5266,-190 2570.5266,-154 2691.4734,-154 2691.4734,-190"/>
<text text-anchor="middle" x="2631" y="-167.8" font-family="Times,serif" font-size="14.00" fill="#000000">HomePageModule</text>
</g>
<!-- CommonModule&#45;&gt;HomePageModule -->
<g id="edge22" class="edge">
<title>CommonModule&#45;&gt;HomePageModule</title>
<path fill="none" stroke="#000000" d="M2336.3887,-122.1223C2336.3887,-124.9729 2336.3887,-127 2336.3887,-127 2336.3887,-127 2587.9332,-127 2587.9332,-127 2587.9332,-127 2587.9332,-143.9561 2587.9332,-143.9561"/>
<polygon fill="#000000" stroke="#000000" points="2584.4333,-143.956 2587.9332,-153.9561 2591.4333,-143.9561 2584.4333,-143.956"/>
</g>
<!-- FormsModule -->
<g id="node15" class="node">
<title>FormsModule</title>
<polygon fill="#8dd3c7" stroke="#000000" points="2281.8288,-122 2278.8288,-126 2257.8288,-126 2254.8288,-122 2186.1712,-122 2186.1712,-86 2281.8288,-86 2281.8288,-122"/>
<text text-anchor="middle" x="2234" y="-99.8" font-family="Times,serif" font-size="14.00" fill="#000000">FormsModule</text>
</g>
<!-- FormsModule&#45;&gt;ConnexionPageModule -->
<g id="edge13" class="edge">
<title>FormsModule&#45;&gt;ConnexionPageModule</title>
<path fill="none" stroke="#000000" d="M2192.2188,-122.2228C2192.2188,-122.2228 2192.2188,-143.7269 2192.2188,-143.7269"/>
<polygon fill="#000000" stroke="#000000" points="2188.7189,-143.7269 2192.2188,-153.7269 2195.7189,-143.727 2188.7189,-143.7269"/>
</g>
<!-- FormsModule&#45;&gt;HikingsModule -->
<g id="edge18" class="edge">
<title>FormsModule&#45;&gt;HikingsModule</title>
<path fill="none" stroke="#000000" d="M2253.81,-122.2921C2253.81,-144.2057 2253.81,-178 2253.81,-178 2253.81,-178 2432.9623,-178 2432.9623,-178"/>
<polygon fill="#000000" stroke="#000000" points="2432.9623,-181.5001 2442.9623,-178 2432.9623,-174.5001 2432.9623,-181.5001"/>
</g>
<!-- FormsModule&#45;&gt;HomePageModule -->
<g id="edge23" class="edge">
<title>FormsModule&#45;&gt;HomePageModule</title>
<path fill="none" stroke="#000000" d="M2225.9558,-122.207C2225.9558,-127.5549 2225.9558,-132 2225.9558,-132 2225.9558,-132 2583.5782,-132 2583.5782,-132 2583.5782,-132 2583.5782,-143.8726 2583.5782,-143.8726"/>
<polygon fill="#000000" stroke="#000000" points="2580.0783,-143.8725 2583.5782,-153.8726 2587.0783,-143.8726 2580.0783,-143.8725"/>
</g>
<!-- IonicModule -->
<g id="node16" class="node">
<title>IonicModule</title>
<polygon fill="#8dd3c7" stroke="#000000" points="2168.3162,-122 2165.3162,-126 2144.3162,-126 2141.3162,-122 2079.6838,-122 2079.6838,-86 2168.3162,-86 2168.3162,-122"/>
<text text-anchor="middle" x="2124" y="-99.8" font-family="Times,serif" font-size="14.00" fill="#000000">IonicModule</text>
</g>
<!-- IonicModule&#45;&gt;ConnexionPageModule -->
<g id="edge14" class="edge">
<title>IonicModule&#45;&gt;ConnexionPageModule</title>
<path fill="none" stroke="#000000" d="M2101.9211,-122.2228C2101.9211,-122.2228 2101.9211,-143.7269 2101.9211,-143.7269"/>
<polygon fill="#000000" stroke="#000000" points="2098.4212,-143.7269 2101.9211,-153.7269 2105.4212,-143.727 2098.4212,-143.7269"/>
</g>
<!-- IonicModule&#45;&gt;HikingsModule -->
<g id="edge19" class="edge">
<title>IonicModule&#45;&gt;HikingsModule</title>
<path fill="none" stroke="#000000" d="M2124,-122.1025C2124,-133.0859 2124,-145 2124,-145 2124,-145 2452.7819,-145 2452.7819,-145 2452.7819,-145 2452.7819,-145.8841 2452.7819,-145.8841"/>
<polygon fill="#000000" stroke="#000000" points="2449.282,-143.8408 2452.7819,-153.8408 2456.282,-143.8409 2449.282,-143.8408"/>
</g>
<!-- IonicModule&#45;&gt;HomePageModule -->
<g id="edge24" class="edge">
<title>IonicModule&#45;&gt;HomePageModule</title>
<path fill="none" stroke="#000000" d="M2146.0789,-122.2434C2146.0789,-129.4297 2146.0789,-136 2146.0789,-136 2146.0789,-136 2579.2233,-136 2579.2233,-136 2579.2233,-136 2579.2233,-143.5782 2579.2233,-143.5782"/>
<polygon fill="#000000" stroke="#000000" points="2575.7234,-143.5781 2579.2233,-153.5782 2582.7234,-143.5782 2575.7234,-143.5781"/>
</g>
<!-- RouterModule.forChild(args) -->
<g id="node17" class="node">
<title>RouterModule.forChild(args)</title>
<polygon fill="#8dd3c7" stroke="#000000" points="2061.7323,-122 2058.7323,-126 2037.7323,-126 2034.7323,-122 1880.2677,-122 1880.2677,-86 2061.7323,-86 2061.7323,-122"/>
<text text-anchor="middle" x="1971" y="-99.8" font-family="Times,serif" font-size="14.00" fill="#000000">RouterModule.forChild(args)</text>
</g>
<!-- RouterModule.forChild(args)&#45;&gt;ConnexionPageModule -->
<g id="edge15" class="edge">
<title>RouterModule.forChild(args)&#45;&gt;ConnexionPageModule</title>
<path fill="none" stroke="#000000" d="M2052.8278,-122.2228C2052.8278,-122.2228 2052.8278,-143.7269 2052.8278,-143.7269"/>
<polygon fill="#000000" stroke="#000000" points="2049.3278,-143.7269 2052.8278,-153.7269 2056.3278,-143.727 2049.3278,-143.7269"/>
</g>
<!-- RouterModule.forChild(args)&#45;&gt;HikingsModule -->
<g id="edge20" class="edge">
<title>RouterModule.forChild(args)&#45;&gt;HikingsModule</title>
<path fill="none" stroke="#000000" d="M2055.7572,-122.1804C2055.7572,-135.0382 2055.7572,-150 2055.7572,-150 2055.7572,-150 2447.9204,-150 2447.9204,-150 2447.9204,-150 2447.9204,-150.3832 2447.9204,-150.3832"/>
<polygon fill="#000000" stroke="#000000" points="2444.4207,-143.832 2447.9204,-153.8321 2451.4207,-143.8322 2444.4207,-143.832"/>
</g>
<!-- RouterModule.forChild(args)&#45;&gt;HomePageModule -->
<g id="edge25" class="edge">
<title>RouterModule.forChild(args)&#45;&gt;HomePageModule</title>
<path fill="none" stroke="#000000" d="M2058.6867,-122.0664C2058.6867,-131.4587 2058.6867,-141 2058.6867,-141 2058.6867,-141 2574.8683,-141 2574.8683,-141 2574.8683,-141 2574.8683,-143.9672 2574.8683,-143.9672"/>
<polygon fill="#000000" stroke="#000000" points="2571.3684,-143.9671 2574.8683,-153.9672 2578.3684,-143.9672 2571.3684,-143.9671"/>
</g>
<!-- ListPage -->
<g id="node18" class="node">
<title>ListPage</title>
<polygon fill="#ffffb3" stroke="#000000" points="2527.4902,-122 2462.5098,-122 2462.5098,-86 2527.4902,-86 2527.4902,-122"/>
<text text-anchor="middle" x="2495" y="-99.8" font-family="Times,serif" font-size="14.00" fill="#000000">ListPage</text>
</g>
<!-- ListPage&#45;&gt;HikingsModule -->
<g id="edge16" class="edge">
<title>ListPage&#45;&gt;HikingsModule</title>
<path fill="none" stroke="#000000" d="M2495,-122.2228C2495,-122.2228 2495,-143.7269 2495,-143.7269"/>
<polygon fill="#000000" stroke="#000000" points="2491.5001,-143.7269 2495,-153.7269 2498.5001,-143.727 2491.5001,-143.7269"/>
</g>
<!-- HomePage -->
<g id="node20" class="node">
<title>HomePage</title>
<polygon fill="#ffffb3" stroke="#000000" points="2669.9248,-122 2592.0752,-122 2592.0752,-86 2669.9248,-86 2669.9248,-122"/>
<text text-anchor="middle" x="2631" y="-99.8" font-family="Times,serif" font-size="14.00" fill="#000000">HomePage</text>
</g>
<!-- HomePage&#45;&gt;HomePageModule -->
<g id="edge21" class="edge">
<title>HomePage&#45;&gt;HomePageModule</title>
<path fill="none" stroke="#000000" d="M2631,-122.2228C2631,-122.2228 2631,-143.7269 2631,-143.7269"/>
<polygon fill="#000000" stroke="#000000" points="2627.5001,-143.7269 2631,-153.7269 2634.5001,-143.727 2627.5001,-143.7269"/>
</g>
</g>
</svg>
