<?xml version="1.0" encoding="UTF-8" standalone="no"?>
<!DOCTYPE svg PUBLIC "-//W3C//DTD SVG 1.1//EN"
 "http://www.w3.org/Graphics/SVG/1.1/DTD/svg11.dtd">
<!-- Generated by graphviz version 2.40.1 (20161225.0304)
 -->
<!-- Title: dependencies Pages: 1 -->
<svg width="675pt" height="211pt"
 viewBox="0.00 0.00 675.00 211.00" xmlns="http://www.w3.org/2000/svg" xmlns:xlink="http://www.w3.org/1999/xlink">
<g id="graph0" class="graph" transform="scale(1 1) rotate(0) translate(4 207)">
<title>dependencies</title>
<polygon fill="#ffffff" stroke="transparent" points="-4,4 -4,-207 671,-207 671,4 -4,4"/>
<text text-anchor="start" x="312.5091" y="-42.4" font-family="sans-serif" font-weight="bold" font-size="14.00" fill="#000000">Legend</text>
<polygon fill="#ffffb3" stroke="transparent" points="99.5,-10 99.5,-30 119.5,-30 119.5,-10 99.5,-10"/>
<text text-anchor="start" x="123.129" y="-15.4" font-family="sans-serif" font-size="14.00" fill="#000000"> &#160;Declarations</text>
<polygon fill="#8dd3c7" stroke="transparent" points="212.5,-10 212.5,-30 232.5,-30 232.5,-10 212.5,-10"/>
<text text-anchor="start" x="236.2251" y="-15.4" font-family="sans-serif" font-size="14.00" fill="#000000"> &#160;Module</text>
<polygon fill="#80b1d3" stroke="transparent" points="298.5,-10 298.5,-30 318.5,-30 318.5,-10 298.5,-10"/>
<text text-anchor="start" x="322.2812" y="-15.4" font-family="sans-serif" font-size="14.00" fill="#000000"> &#160;Bootstrap</text>
<polygon fill="#fdb462" stroke="transparent" points="395.5,-10 395.5,-30 415.5,-30 415.5,-10 395.5,-10"/>
<text text-anchor="start" x="419.1732" y="-15.4" font-family="sans-serif" font-size="14.00" fill="#000000"> &#160;Providers</text>
<polygon fill="#fb8072" stroke="transparent" points="491.5,-10 491.5,-30 511.5,-30 511.5,-10 491.5,-10"/>
<text text-anchor="start" x="515.2258" y="-15.4" font-family="sans-serif" font-size="14.00" fill="#000000"> &#160;Exports</text>
<g id="clust1" class="cluster">
<title>cluster_HikingsModule</title>
<polygon fill="none" stroke="#000000" stroke-dasharray="1,5" points="8,-70 8,-195 659,-195 659,-70 8,-70"/>
</g>
<g id="clust2" class="cluster">
<title>cluster_HikingsModule_declarations</title>
<polygon fill="none" stroke="#000000" points="571,-78 571,-130 651,-130 651,-78 571,-78"/>
</g>
<g id="clust4" class="cluster">
<title>cluster_HikingsModule_imports</title>
<polygon fill="none" stroke="#000000" points="16,-78 16,-130 563,-130 563,-78 16,-78"/>
</g>
<!-- ListPage -->
<g id="node1" class="node">
<title>ListPage</title>
<polygon fill="#ffffb3" stroke="#000000" points="643.4902,-122 578.5098,-122 578.5098,-86 643.4902,-86 643.4902,-122"/>
<text text-anchor="middle" x="611" y="-99.8" font-family="Times,serif" font-size="14.00" fill="#000000">ListPage</text>
</g>
<!-- HikingsModule -->
<g id="node2" class="node">
<title>HikingsModule</title>
<polygon fill="#8dd3c7" stroke="#000000" points="429.8823,-187 426.8823,-191 405.8823,-191 402.8823,-187 326.1177,-187 326.1177,-151 429.8823,-151 429.8823,-187"/>
<text text-anchor="middle" x="378" y="-164.8" font-family="Times,serif" font-size="14.00" fill="#000000">HikingsModule</text>
</g>
<!-- ListPage&#45;&gt;HikingsModule -->
<g id="edge1" class="edge">
<title>ListPage&#45;&gt;HikingsModule</title>
<path fill="none" stroke="#000000" d="M611,-122.2843C611,-143.3211 611,-175 611,-175 611,-175 439.9997,-175 439.9997,-175"/>
<polygon fill="#000000" stroke="#000000" points="439.9998,-171.5001 429.9997,-175 439.9997,-178.5001 439.9998,-171.5001"/>
</g>
<!-- CommonModule -->
<g id="node3" class="node">
<title>CommonModule</title>
<polygon fill="#8dd3c7" stroke="#000000" points="554.6681,-122 551.6681,-126 530.6681,-126 527.6681,-122 443.3319,-122 443.3319,-86 554.6681,-86 554.6681,-122"/>
<text text-anchor="middle" x="499" y="-99.8" font-family="Times,serif" font-size="14.00" fill="#000000">CommonModule</text>
</g>
<!-- CommonModule&#45;&gt;HikingsModule -->
<g id="edge2" class="edge">
<title>CommonModule&#45;&gt;HikingsModule</title>
<path fill="none" stroke="#000000" d="M499,-122.0225C499,-139.3734 499,-163 499,-163 499,-163 440.0171,-163 440.0171,-163"/>
<polygon fill="#000000" stroke="#000000" points="440.0171,-159.5001 430.0171,-163 440.0171,-166.5001 440.0171,-159.5001"/>
</g>
<!-- FormsModule -->
<g id="node4" class="node">
<title>FormsModule</title>
<polygon fill="#8dd3c7" stroke="#000000" points="425.8288,-122 422.8288,-126 401.8288,-126 398.8288,-122 330.1712,-122 330.1712,-86 425.8288,-86 425.8288,-122"/>
<text text-anchor="middle" x="378" y="-99.8" font-family="Times,serif" font-size="14.00" fill="#000000">FormsModule</text>
</g>
<!-- FormsModule&#45;&gt;HikingsModule -->
<g id="edge3" class="edge">
<title>FormsModule&#45;&gt;HikingsModule</title>
<path fill="none" stroke="#000000" d="M378,-122.1061C378,-122.1061 378,-140.991 378,-140.991"/>
<polygon fill="#000000" stroke="#000000" points="374.5001,-140.9909 378,-150.991 381.5001,-140.991 374.5001,-140.9909"/>
</g>
<!-- IonicModule -->
<g id="node5" class="node">
<title>IonicModule</title>
<polygon fill="#8dd3c7" stroke="#000000" points="312.3162,-122 309.3162,-126 288.3162,-126 285.3162,-122 223.6838,-122 223.6838,-86 312.3162,-86 312.3162,-122"/>
<text text-anchor="middle" x="268" y="-99.8" font-family="Times,serif" font-size="14.00" fill="#000000">IonicModule</text>
</g>
<!-- IonicModule&#45;&gt;HikingsModule -->
<g id="edge4" class="edge">
<title>IonicModule&#45;&gt;HikingsModule</title>
<path fill="none" stroke="#000000" d="M268,-122.0225C268,-139.3734 268,-163 268,-163 268,-163 315.8992,-163 315.8992,-163"/>
<polygon fill="#000000" stroke="#000000" points="315.8992,-166.5001 325.8992,-163 315.8992,-159.5001 315.8992,-166.5001"/>
</g>
<!-- RouterModule.forChild(args) -->
<g id="node6" class="node">
<title>RouterModule.forChild(args)</title>
<polygon fill="#8dd3c7" stroke="#000000" points="205.7323,-122 202.7323,-126 181.7323,-126 178.7323,-122 24.2677,-122 24.2677,-86 205.7323,-86 205.7323,-122"/>
<text text-anchor="middle" x="115" y="-99.8" font-family="Times,serif" font-size="14.00" fill="#000000">RouterModule.forChild(args)</text>
</g>
<!-- RouterModule.forChild(args)&#45;&gt;HikingsModule -->
<g id="edge5" class="edge">
<title>RouterModule.forChild(args)&#45;&gt;HikingsModule</title>
<path fill="none" stroke="#000000" d="M115,-122.2843C115,-143.3211 115,-175 115,-175 115,-175 316.0397,-175 316.0397,-175"/>
<polygon fill="#000000" stroke="#000000" points="316.0397,-178.5001 326.0397,-175 316.0396,-171.5001 316.0397,-178.5001"/>
</g>
</g>
</svg>
