<?xml version="1.0" encoding="UTF-8" standalone="no"?>
<!DOCTYPE svg PUBLIC "-//W3C//DTD SVG 1.1//EN"
 "http://www.w3.org/Graphics/SVG/1.1/DTD/svg11.dtd">
<!-- Generated by graphviz version 2.40.1 (20161225.0304)
 -->
<!-- Title: dependencies Pages: 1 -->
<svg width="715pt" height="211pt"
 viewBox="0.00 0.00 715.00 211.00" xmlns="http://www.w3.org/2000/svg" xmlns:xlink="http://www.w3.org/1999/xlink">
<g id="graph0" class="graph" transform="scale(1 1) rotate(0) translate(4 207)">
<title>dependencies</title>
<polygon fill="#ffffff" stroke="transparent" points="-4,4 -4,-207 711,-207 711,4 -4,4"/>
<text text-anchor="start" x="332.5091" y="-42.4" font-family="sans-serif" font-weight="bold" font-size="14.00" fill="#000000">Legend</text>
<polygon fill="#ffffb3" stroke="transparent" points="119.5,-10 119.5,-30 139.5,-30 139.5,-10 119.5,-10"/>
<text text-anchor="start" x="143.129" y="-15.4" font-family="sans-serif" font-size="14.00" fill="#000000"> &#160;Declarations</text>
<polygon fill="#8dd3c7" stroke="transparent" points="232.5,-10 232.5,-30 252.5,-30 252.5,-10 232.5,-10"/>
<text text-anchor="start" x="256.2251" y="-15.4" font-family="sans-serif" font-size="14.00" fill="#000000"> &#160;Module</text>
<polygon fill="#80b1d3" stroke="transparent" points="318.5,-10 318.5,-30 338.5,-30 338.5,-10 318.5,-10"/>
<text text-anchor="start" x="342.2812" y="-15.4" font-family="sans-serif" font-size="14.00" fill="#000000"> &#160;Bootstrap</text>
<polygon fill="#fdb462" stroke="transparent" points="415.5,-10 415.5,-30 435.5,-30 435.5,-10 415.5,-10"/>
<text text-anchor="start" x="439.1732" y="-15.4" font-family="sans-serif" font-size="14.00" fill="#000000"> &#160;Providers</text>
<polygon fill="#fb8072" stroke="transparent" points="511.5,-10 511.5,-30 531.5,-30 531.5,-10 511.5,-10"/>
<text text-anchor="start" x="535.2258" y="-15.4" font-family="sans-serif" font-size="14.00" fill="#000000"> &#160;Exports</text>
<g id="clust1" class="cluster">
<title>cluster_ConnexionPageModule</title>
<polygon fill="none" stroke="#000000" stroke-dasharray="1,5" points="8,-70 8,-195 699,-195 699,-70 8,-70"/>
</g>
<g id="clust2" class="cluster">
<title>cluster_ConnexionPageModule_declarations</title>
<polygon fill="none" stroke="#000000" points="571,-78 571,-130 691,-130 691,-78 571,-78"/>
</g>
<g id="clust4" class="cluster">
<title>cluster_ConnexionPageModule_imports</title>
<polygon fill="none" stroke="#000000" points="16,-78 16,-130 563,-130 563,-78 16,-78"/>
</g>
<!-- ConnexionPage -->
<g id="node1" class="node">
<title>ConnexionPage</title>
<polygon fill="#ffffb3" stroke="#000000" points="683.1542,-122 578.8458,-122 578.8458,-86 683.1542,-86 683.1542,-122"/>
<text text-anchor="middle" x="631" y="-99.8" font-family="Times,serif" font-size="14.00" fill="#000000">ConnexionPage</text>
</g>
<!-- ConnexionPageModule -->
<g id="node2" class="node">
<title>ConnexionPageModule</title>
<polygon fill="#8dd3c7" stroke="#000000" points="452.2035,-187 449.2035,-191 428.2035,-191 425.2035,-187 303.7965,-187 303.7965,-151 452.2035,-151 452.2035,-187"/>
<text text-anchor="middle" x="378" y="-164.8" font-family="Times,serif" font-size="14.00" fill="#000000">ConnexionPageModule</text>
</g>
<!-- ConnexionPage&#45;&gt;ConnexionPageModule -->
<g id="edge1" class="edge">
<title>ConnexionPage&#45;&gt;ConnexionPageModule</title>
<path fill="none" stroke="#000000" d="M631,-122.1061C631,-141.3391 631,-169 631,-169 631,-169 462.1989,-169 462.1989,-169"/>
<polygon fill="#000000" stroke="#000000" points="462.1989,-165.5001 452.1989,-169 462.1988,-172.5001 462.1989,-165.5001"/>
</g>
<!-- CommonModule -->
<g id="node3" class="node">
<title>CommonModule</title>
<polygon fill="#8dd3c7" stroke="#000000" points="554.6681,-122 551.6681,-126 530.6681,-126 527.6681,-122 443.3319,-122 443.3319,-86 554.6681,-86 554.6681,-122"/>
<text text-anchor="middle" x="499" y="-99.8" font-family="Times,serif" font-size="14.00" fill="#000000">CommonModule</text>
</g>
<!-- CommonModule&#45;&gt;ConnexionPageModule -->
<g id="edge2" class="edge">
<title>CommonModule&#45;&gt;ConnexionPageModule</title>
<path fill="none" stroke="#000000" d="M447.634,-122.1061C447.634,-122.1061 447.634,-140.991 447.634,-140.991"/>
<polygon fill="#000000" stroke="#000000" points="444.134,-140.9909 447.634,-150.991 451.134,-140.991 444.134,-140.9909"/>
</g>
<!-- FormsModule -->
<g id="node4" class="node">
<title>FormsModule</title>
<polygon fill="#8dd3c7" stroke="#000000" points="425.8288,-122 422.8288,-126 401.8288,-126 398.8288,-122 330.1712,-122 330.1712,-86 425.8288,-86 425.8288,-122"/>
<text text-anchor="middle" x="378" y="-99.8" font-family="Times,serif" font-size="14.00" fill="#000000">FormsModule</text>
</g>
<!-- FormsModule&#45;&gt;ConnexionPageModule -->
<g id="edge3" class="edge">
<title>FormsModule&#45;&gt;ConnexionPageModule</title>
<path fill="none" stroke="#000000" d="M378,-122.1061C378,-122.1061 378,-140.991 378,-140.991"/>
<polygon fill="#000000" stroke="#000000" points="374.5001,-140.9909 378,-150.991 381.5001,-140.991 374.5001,-140.9909"/>
</g>
<!-- IonicModule -->
<g id="node5" class="node">
<title>IonicModule</title>
<polygon fill="#8dd3c7" stroke="#000000" points="312.3162,-122 309.3162,-126 288.3162,-126 285.3162,-122 223.6838,-122 223.6838,-86 312.3162,-86 312.3162,-122"/>
<text text-anchor="middle" x="268" y="-99.8" font-family="Times,serif" font-size="14.00" fill="#000000">IonicModule</text>
</g>
<!-- IonicModule&#45;&gt;ConnexionPageModule -->
<g id="edge4" class="edge">
<title>IonicModule&#45;&gt;ConnexionPageModule</title>
<path fill="none" stroke="#000000" d="M308.0281,-122.1061C308.0281,-122.1061 308.0281,-140.991 308.0281,-140.991"/>
<polygon fill="#000000" stroke="#000000" points="304.5281,-140.9909 308.0281,-150.991 311.5281,-140.991 304.5281,-140.9909"/>
</g>
<!-- RouterModule.forChild(args) -->
<g id="node6" class="node">
<title>RouterModule.forChild(args)</title>
<polygon fill="#8dd3c7" stroke="#000000" points="205.7323,-122 202.7323,-126 181.7323,-126 178.7323,-122 24.2677,-122 24.2677,-86 205.7323,-86 205.7323,-122"/>
<text text-anchor="middle" x="115" y="-99.8" font-family="Times,serif" font-size="14.00" fill="#000000">RouterModule.forChild(args)</text>
</g>
<!-- RouterModule.forChild(args)&#45;&gt;ConnexionPageModule -->
<g id="edge5" class="edge">
<title>RouterModule.forChild(args)&#45;&gt;ConnexionPageModule</title>
<path fill="none" stroke="#000000" d="M115,-122.1061C115,-141.3391 115,-169 115,-169 115,-169 293.6893,-169 293.6893,-169"/>
<polygon fill="#000000" stroke="#000000" points="293.6894,-172.5001 303.6893,-169 293.6893,-165.5001 293.6894,-172.5001"/>
</g>
</g>
</svg>
